<svg width="32" height="32" viewBox="0 0 32 32" fill="none" xmlns="http://www.w3.org/2000/svg">
  <!-- Shadow -->
  <ellipse cx="18" cy="28" rx="8" ry="2" fill="#000000" opacity="0.15"/>
  
  <!-- Body (slightly tilted) -->
  <ellipse cx="18" cy="20" rx="10" ry="8" fill="#8D6E63" transform="rotate(-10 18 20)"/>
  <ellipse cx="18" cy="20" rx="9" ry="7" fill="#A1887F" transform="rotate(-10 18 20)"/>
  
  <!-- Head -->
  <ellipse cx="16" cy="11" rx="8" ry="7" fill="#8D6E63"/>
  <ellipse cx="16" cy="11" rx="7" ry="6" fill="#A1887F"/>
  
  <!-- Ears -->
  <ellipse cx="11" cy="6" rx="2.5" ry="3.5" fill="#8D6E63"/>
  <ellipse cx="21" cy="6" rx="2.5" ry="3.5" fill="#8D6E63"/>
  <ellipse cx="11" cy="6.5" rx="1.5" ry="2.5" fill="#A1887F"/>
  <ellipse cx="21" cy="6.5" rx="1.5" ry="2.5" fill="#A1887F"/>
  
  <!-- Eyes (happy) -->
  <path d="M 11 10 Q 13 11 15 10" stroke="#3E2723" stroke-width="1.2" stroke-linecap="round" fill="none"/>
  <path d="M 17 10 Q 19 11 21 10" stroke="#3E2723" stroke-width="1.2" stroke-linecap="round" fill="none"/>
  
  <!-- Nose -->
  <ellipse cx="16" cy="13" rx="1.5" ry="1" fill="#6D4C41"/>
  
  <!-- Mouth (smiling) -->
  <path d="M 13 14.5 Q 16 16.5 19 14.5" stroke="#6D4C41" stroke-width="1" stroke-linecap="round" fill="none"/>
  
  <!-- Legs -->
  <ellipse cx="13" cy="27" rx="2" ry="3" fill="#8D6E63" transform="rotate(-5 13 27)"/>
  <ellipse cx="18" cy="28" rx="2" ry="3" fill="#8D6E63"/>
  <ellipse cx="23" cy="27" rx="2" ry="3" fill="#8D6E63" transform="rotate(5 23 27)"/>
  
  <!-- Highlight -->
  <ellipse cx="14" cy="9" rx="3" ry="2" fill="#FFFFFF" opacity="0.3"/>
  
  <!-- Sparkle effect -->
  <circle cx="8" cy="8" r="1" fill="#FFD700" opacity="0.8"/>
  <circle cx="25" cy="12" r="0.8" fill="#FFD700" opacity="0.6"/>
</svg>
